<svg width="17" height="17" viewBox="0 0 17 17" fill="none" xmlns="http://www.w3.org/2000/svg">
<path d="M1.70528 16.3314C0.860757 16.3314 0.166732 15.6871 0.088004 14.8632L0.0805664 14.7067V2.79215C0.0805664 1.94763 0.724914 1.2536 1.54881 1.17487L1.70528 1.16743H6.57941C7.42393 1.16743 8.11796 1.81178 8.19669 2.63568L8.20412 2.79215V3.06773L10.5747 0.609809C11.1585 0.00413022 12.0989 -0.0503627 12.7485 0.460214L12.8744 0.569868L15.8613 3.52104C16.4597 4.11232 16.5025 5.0534 15.981 5.69944L15.8692 5.82452L13.3664 8.20723L13.6198 8.20785C14.4643 8.20785 15.1584 8.8522 15.2371 9.67609L15.2445 9.83256V14.7067C15.2445 15.5512 14.6002 16.2452 13.7763 16.324L13.6198 16.3314H1.70528ZM7.12098 9.29099H1.16371V14.7067C1.16371 14.9393 1.31039 15.1377 1.51631 15.2144L1.60793 15.2395L1.70528 15.2483H7.12098V9.29099ZM13.6198 9.29099H8.20412V15.2483H13.6198C13.8857 15.2483 14.1068 15.0567 14.1527 14.804L14.1614 14.7067V9.83256C14.1614 9.56669 13.9698 9.34557 13.7172 9.29972L13.6198 9.29099ZM8.20412 6.26841V8.20723H10.1429L8.20412 6.26841ZM6.57941 2.25058H1.70528C1.43941 2.25058 1.21829 2.44216 1.17243 2.6948L1.16371 2.79215V8.20785H7.12098V2.79215C7.12098 2.55951 6.9743 2.36114 6.76838 2.28446L6.67676 2.2593L6.57941 2.25058ZM12.1275 1.35444C11.9297 1.16367 11.6368 1.14745 11.4284 1.29746L11.3545 1.36148L8.521 4.30127C8.34174 4.48726 8.32171 4.76889 8.45935 4.97624L8.52798 5.06006L11.3612 7.89325C11.543 8.07513 11.8228 8.10099 12.0325 7.96881L12.1176 7.90247L15.1046 5.05742C15.2914 4.8683 15.3106 4.57635 15.1631 4.36616L15.1 4.29153L12.1275 1.35444Z" fill="#626B8C"/>
</svg>
