<svg width="16" height="16" viewBox="0 0 16 16" fill="none" xmlns="http://www.w3.org/2000/svg">
<path d="M12.1645 4.87307C12.1645 5.77037 11.4371 6.49778 10.5398 6.49778C9.64253 6.49778 8.91513 5.77037 8.91513 4.87307C8.91513 3.97576 9.64253 3.24835 10.5398 3.24835C11.4371 3.24835 12.1645 3.97576 12.1645 4.87307ZM11.0814 4.87307C11.0814 4.57397 10.8389 4.3315 10.5398 4.3315C10.2407 4.3315 9.99827 4.57397 9.99827 4.87307C9.99827 5.17217 10.2407 5.41464 10.5398 5.41464C10.8389 5.41464 11.0814 5.17217 11.0814 4.87307ZM0.25 3.24835C0.25 1.45375 1.70482 -0.00106812 3.49942 -0.00106812H12.1645C13.9592 -0.00106812 15.414 1.45375 15.414 3.24835V11.9135C15.414 13.7081 13.9592 15.1629 12.1645 15.1629H3.49942C1.70482 15.1629 0.25 13.7081 0.25 11.9135V3.24835ZM3.49942 1.08207C2.30302 1.08207 1.33314 2.05195 1.33314 3.24835V11.9135C1.33314 12.3171 1.44352 12.6949 1.63574 13.0184L6.69326 8.04887C7.32537 7.42775 8.3386 7.42776 8.97071 8.04887L14.0282 13.0184C14.2205 12.6949 14.3308 12.3171 14.3308 11.9135V3.24835C14.3308 2.05195 13.361 1.08207 12.1645 1.08207H3.49942ZM3.49942 14.0798H12.1645C12.5644 14.0798 12.9389 13.9714 13.2604 13.7825L8.21156 8.82145C8.00086 8.61441 7.66311 8.61441 7.45241 8.82145L2.40354 13.7825C2.72504 13.9714 3.09958 14.0798 3.49942 14.0798Z" fill="#626B8C"/>
</svg>
